<svg width="170" height="175" viewBox="0 0 170 175" fill="none" xmlns="http://www.w3.org/2000/svg">
<path d="M115.2 36.8644C114.959 34.0515 112.838 31.9137 110.314 31.7369C111.375 29.2294 109.896 26.2076 107.099 25.0985C102.502 23.2822 97.4553 26.4005 94.0638 29.2294C93.1958 29.9527 92.1349 31.5119 90.9776 31.6565C90.9937 31.6565 88.7595 30.5475 88.5988 30.5153C86.5413 29.9206 84.2589 30.226 82.2979 30.9975C76.8329 33.1514 74.5023 39.0021 72.5413 44.0974C72.1877 45.0136 73.4414 45.4637 74.0201 44.869C84.4679 46.8139 94.5138 50.0768 104.078 54.7381C104.785 55.0917 105.556 54.4488 105.331 53.7255C105.428 53.6773 105.508 53.629 105.605 53.5326C109.398 49.4178 115.747 42.9562 115.2 36.8644Z" fill="#111827"/>
<path d="M71.8502 74.573C73.6987 79.154 78.3922 80.8256 83.4232 81.3239L84.7573 96.433C84.7573 96.433 85.4967 108.231 95.7837 104.534C103.129 101.898 104.383 97.3814 104.383 97.3814C104.383 97.3814 103.129 89.216 101.522 76.2929C105.894 73.8015 108.144 65.813 108.144 65.813C116.599 65.6201 124.748 61.1195 122.385 52.6005C120.714 46.5569 114.654 46.2997 110.33 47.6659C108.562 48.2285 107.083 49.0643 106.328 49.868C106.328 49.868 106.714 43.2296 96.4588 39.7256C87.6344 36.7038 82.282 40.4489 78.6493 45.8175C77.3152 47.7624 75.5954 47.5213 74.8881 50.6556C72.7504 60.1711 69.9857 69.9278 71.8502 74.573Z" fill="white"/>
<path d="M92.103 106.029C90.6403 106.029 89.3223 105.659 88.1971 104.903C84.4198 102.412 84.018 96.7221 84.0019 96.481L82.7321 82.0148C76.576 81.2754 72.7826 78.9287 71.1431 74.846C69.4554 70.6347 71.2717 62.823 73.2005 54.5451C73.522 53.195 73.8274 51.8448 74.1328 50.4785C74.6311 48.2443 75.6758 47.4567 76.592 46.7495C77.1064 46.3637 77.5886 45.994 78.0065 45.3672C82.7482 38.3912 88.8561 36.3017 96.7161 38.986C104.48 41.6381 106.457 46.0422 106.955 48.3729C107.807 47.8103 108.9 47.312 110.121 46.9102C111.729 46.3959 115.844 45.4154 119.299 47.296C121.212 48.3408 122.514 50.0445 123.157 52.3752C124.041 55.5738 123.575 58.5153 121.807 60.8942C119.348 64.2053 114.493 66.2949 108.755 66.5521C108.177 68.3844 106.071 74.2191 102.39 76.6784C103.949 89.1514 105.171 97.1721 105.187 97.2525C105.203 97.365 105.203 97.4775 105.171 97.574C105.123 97.7668 103.724 102.492 96.0892 105.241C94.6265 105.771 93.3085 106.029 92.103 106.029ZM72.5576 74.2834C74.0203 77.916 77.5886 79.9734 83.5036 80.5521C83.8733 80.5842 84.1627 80.8896 84.1948 81.2593L85.5289 96.3684C85.5289 96.4327 85.8986 101.56 89.0329 103.618C90.6885 104.695 92.8584 104.759 95.5266 103.81C101.635 101.608 103.306 98.0562 103.596 97.3168C103.403 96.0148 102.213 88.1067 100.767 76.4051C100.734 76.0997 100.879 75.7943 101.152 75.6336C105.203 73.319 107.389 65.6841 107.405 65.6198C107.501 65.2983 107.791 65.0572 108.128 65.0572C113.561 64.9286 118.319 62.9998 120.537 60.0101C122.032 58.0009 122.402 55.5738 121.63 52.8253C121.1 50.9125 120.055 49.5141 118.528 48.6783C116.503 47.5853 113.529 47.4728 110.555 48.4211C108.98 48.9194 107.566 49.6909 106.875 50.4142C106.65 50.6553 106.312 50.7196 106.007 50.5911C105.701 50.4625 105.524 50.1571 105.54 49.8356C105.557 49.5945 105.701 43.7277 96.1856 40.4808C88.9847 38.0216 83.6162 39.8539 79.2602 46.2833C78.6816 47.1192 78.0547 47.6014 77.5082 48.0193C76.6724 48.6622 75.9973 49.1605 75.6276 50.8482C75.3222 52.1984 75.0008 53.5646 74.6954 54.9148C72.8148 62.9355 71.0627 70.5222 72.5576 74.2834Z" fill="#111827"/>
<path d="M95.1089 49.2727C94.9321 48.8065 95.2053 48.3565 95.6232 48.1636C96.0572 47.9707 96.5073 47.7618 96.9413 47.5689C97.3752 47.376 97.9057 47.6653 98.0503 48.0832C98.2272 48.5494 97.9539 48.9994 97.536 49.1923C97.102 49.3852 96.6519 49.5941 96.218 49.787C95.8 49.996 95.2696 49.6906 95.1089 49.2727Z" fill="#111827"/>
<path d="M110.218 58.2901C110.154 58.2901 110.089 58.2901 110.041 58.274C109.623 58.1776 109.366 57.7597 109.479 57.3418C110.427 53.4198 113.835 50.7195 115.747 50.5748C116.181 50.5588 116.535 50.8641 116.567 51.2981C116.599 51.716 116.278 52.0857 115.844 52.1179C114.606 52.1983 111.761 54.4486 110.973 57.6954C110.877 58.049 110.556 58.2901 110.218 58.2901Z" fill="#111827"/>
<path d="M99.8023 49.1927C98.9343 49.482 98.0663 49.7874 97.2144 50.0767C96.1697 50.4303 96.6197 52.1181 97.6806 51.7484L100.268 50.8643C101.313 50.4946 100.863 48.823 99.8023 49.1927Z" fill="#111827"/>
<path d="M99.3844 67.2276C99.304 68.8349 97.9056 70.0244 96.2982 69.7511C95.2856 69.5743 94.8677 71.1174 95.8803 71.2942C98.5325 71.7442 100.863 69.944 100.992 67.2276C101.04 66.1989 99.4326 66.1989 99.3844 67.2276Z" fill="#111827"/>
<path d="M56.0662 100.194C55.8412 100.194 55.6322 100.098 55.4876 99.9207C55.2143 99.5992 55.2465 99.117 55.5679 98.8277C59.3774 95.5648 70.3556 95.9666 80.3533 96.5774C82.25 96.6899 83.7448 96.7864 84.5163 96.7703C84.9503 96.7703 85.2879 97.0918 85.304 97.5258C85.32 97.9437 84.9664 98.2973 84.5485 98.3134C83.7127 98.3294 82.1857 98.233 80.2569 98.1205C73.2488 97.6865 60.2132 96.8667 56.5806 100.001C56.4359 100.13 56.243 100.194 56.0662 100.194Z" fill="#111827"/>
<path d="M141.256 175C140.838 175 140.484 174.662 140.484 174.228C140.484 173.907 140.276 141.695 138.572 115.158C138.138 108.471 136.032 103.569 132.319 100.563C125.697 95.2108 115.201 96.7378 108.916 97.67C106.955 97.9593 105.396 98.1844 104.367 98.1522C103.933 98.1362 103.612 97.7825 103.612 97.3646C103.628 96.9306 103.998 96.5931 104.399 96.6092C105.316 96.6413 106.875 96.4002 108.691 96.143C115.217 95.1786 126.131 93.5874 133.284 99.3738C137.35 102.669 139.649 107.957 140.115 115.078C141.835 141.663 142.028 173.923 142.028 174.244C142.028 174.662 141.69 175 141.256 175Z" fill="#111827"/>
<path d="M120.746 175C120.328 175 119.991 174.663 119.975 174.245L118.817 131.071C118.801 130.653 119.139 130.284 119.573 130.284C120.007 130.268 120.361 130.605 120.361 131.039L121.518 174.213C121.534 174.631 121.196 175 120.762 175H120.746Z" fill="#111827"/>
<path d="M128.847 159.65C125.198 159.65 121.855 158.975 120.023 157.705C119.669 157.464 119.589 156.981 119.83 156.628C120.071 156.274 120.553 156.194 120.907 156.435C124.539 158.942 135.148 158.766 140.259 155.278C140.613 155.037 141.095 155.133 141.336 155.487C141.577 155.84 141.481 156.322 141.143 156.563C138.009 158.669 133.219 159.65 128.847 159.65Z" fill="#111827"/>
<path d="M84.2754 92.5107L79.7427 96.497L81.4465 110.256L87.8116 104.486L84.2754 92.5107Z" fill="white"/>
<path d="M81.4463 111.028C81.3498 111.028 81.2695 111.012 81.173 110.979C80.8998 110.883 80.7069 110.642 80.6747 110.353L78.9709 96.5936C78.9388 96.3364 79.0352 96.0953 79.2281 95.9185L83.7448 91.9322C83.9377 91.7554 84.2109 91.6911 84.4681 91.7715C84.7253 91.8519 84.9181 92.0448 84.9985 92.3019L88.5347 104.277C88.6151 104.566 88.5347 104.871 88.3097 105.064L81.9606 110.851C81.816 110.963 81.6391 111.028 81.4463 111.028ZM80.5622 96.8025L82.0249 108.681L86.9273 104.228L83.8734 93.8771L80.5622 96.8025Z" fill="#111827"/>
<path d="M97.3433 103.617L102.246 109.966L108.321 97.5412L103.982 91.4814L97.3433 103.617Z" fill="white"/>
<path d="M102.245 110.738C102.004 110.738 101.779 110.625 101.635 110.433L96.7162 104.084C96.5233 103.842 96.5072 103.505 96.6519 103.248L103.29 91.1122C103.419 90.8871 103.66 90.7264 103.917 90.7103C104.19 90.6943 104.431 90.8228 104.592 91.0318L108.932 97.0915C109.093 97.3166 109.125 97.622 108.996 97.8791L102.937 110.304C102.824 110.545 102.583 110.706 102.326 110.738C102.31 110.738 102.278 110.738 102.245 110.738ZM98.2592 103.537L102.101 108.504L107.421 97.6059L104.062 92.9124L98.2592 103.537Z" fill="#111827"/>
<path d="M97.6321 175C97.2142 175 96.8606 174.663 96.8606 174.229L96.5713 103.602C96.5713 103.184 96.9088 102.83 97.3428 102.83C97.7607 102.83 98.1143 103.168 98.1143 103.602L98.4037 174.229C98.4037 174.663 98.05 175 97.6321 175Z" fill="#111827"/>
<path d="M86.6543 174.999C86.6383 174.999 86.6383 174.999 86.6543 174.999C86.2204 174.999 85.8828 174.646 85.8828 174.212L87.0401 104.453C87.0401 104.019 87.4098 103.697 87.8277 103.697C88.2617 103.697 88.5992 104.051 88.5832 104.485L87.4259 174.244C87.4098 174.662 87.0723 174.999 86.6543 174.999Z" fill="#111827"/>
<path d="M60.0687 175C59.6507 175 59.2971 174.662 59.2971 174.228L59.0078 136.263C59.0078 135.829 59.3454 135.491 59.7793 135.491C60.2294 135.507 60.5509 135.829 60.5509 136.263L60.8402 174.228C60.8402 174.662 60.5026 175 60.0687 175Z" fill="#111827"/>
<path d="M21.669 109.645C20.5117 108.295 19.3544 106.945 18.1971 105.594C17.4738 104.742 16.2522 105.98 16.9755 106.816C18.1328 108.166 19.2901 109.516 20.4474 110.866C21.1707 111.718 22.3923 110.481 21.669 109.645Z" fill="#111827"/>
<path d="M155.674 84.7956C154.324 86.5315 152.974 88.2675 151.623 90.0034C150.948 90.8714 152.17 92.109 152.845 91.225C154.195 89.489 155.545 87.7531 156.895 86.0172C157.571 85.1492 156.349 83.9115 155.674 84.7956Z" fill="#111827"/>
<path d="M155.674 91.7233C154.71 92.8806 153.745 94.0379 152.781 95.1952C152.074 96.0471 153.295 97.2847 154.002 96.4168C154.967 95.2595 155.931 94.1022 156.896 92.9449C157.603 92.1091 156.381 90.8714 155.674 91.7233Z" fill="#111827"/>
<path d="M10.0801 131.248C5.83667 131.248 2.38086 127.792 2.38086 123.549C2.38086 119.305 5.83667 115.85 10.0801 115.85C14.3235 115.85 17.7793 119.305 17.7793 123.549C17.7954 127.792 14.3235 131.248 10.0801 131.248ZM10.0801 117.393C6.68856 117.393 3.92392 120.157 3.92392 123.549C3.92392 126.94 6.68856 129.705 10.0801 129.705C13.4716 129.705 16.2362 126.94 16.2362 123.549C16.2362 120.157 13.4877 117.393 10.0801 117.393Z" fill="#111827"/>
<path d="M21.0583 27.8149C18.7277 27.8149 16.8149 25.9183 16.8149 23.5715C16.8149 21.2409 18.7116 19.3281 21.0583 19.3281C23.4051 19.3281 25.3018 21.2248 25.3018 23.5715C25.3018 25.9183 23.4051 27.8149 21.0583 27.8149ZM21.0583 20.8873C19.5796 20.8873 18.358 22.0928 18.358 23.5876C18.358 25.0664 19.5635 26.288 21.0583 26.288C22.5532 26.288 23.7587 25.0824 23.7587 23.5876C23.7587 22.0928 22.5532 20.8873 21.0583 20.8873Z" fill="#111827"/>
<path d="M16.4452 34.2764H0.837843C-0.27123 34.2764 -0.287303 36.0123 0.837843 36.0123H16.4452C17.5543 35.9962 17.5543 34.2764 16.4452 34.2764Z" fill="#111827"/>
<path d="M11.2374 45.2549H0.837843C-0.27123 45.2549 -0.287303 46.9908 0.837843 46.9908H11.2374C12.3465 46.9747 12.3626 45.2549 11.2374 45.2549Z" fill="#111827"/>
<path d="M168.999 154.361C168.742 154.361 168.485 154.233 168.34 153.992L156.783 134.928C156.558 134.559 156.671 134.093 157.04 133.868C157.41 133.643 157.876 133.755 158.101 134.125L169.658 153.188C169.883 153.558 169.771 154.024 169.401 154.249C169.272 154.329 169.128 154.361 168.999 154.361Z" fill="#111827"/>
<path d="M76.3304 84.5061C94.2393 73.6522 99.9586 50.3354 89.1048 32.4265C78.2509 14.5175 54.9341 8.79824 37.0251 19.6521C19.1162 30.5059 13.3969 53.8228 24.2508 71.7317C35.1046 89.6406 58.4214 95.3599 76.3304 84.5061Z" fill="#DBEEFF"/>
<path d="M72.3228 77.894C86.5801 69.2533 91.1333 50.6907 82.4925 36.4334C73.8518 22.1761 55.2892 17.623 41.0319 26.2637C26.7746 34.9045 22.2215 53.467 30.8622 67.7243C39.503 81.9816 58.0655 86.5347 72.3228 77.894Z" fill="#DBEEFF"/>
<path d="M56.6935 66.568C56.6775 66.568 56.6453 66.5519 56.6453 66.568C44.333 66.5359 34.6246 53.0502 34.2067 52.4715C34.0138 52.1983 34.0138 51.8447 34.2067 51.5714C34.6246 50.9928 44.3812 37.6035 56.6775 37.6035C56.6935 37.6035 56.7096 37.6035 56.7257 37.6035C69.038 37.6357 78.7464 51.1213 79.1643 51.7C79.3572 51.9732 79.3572 52.3269 79.1643 52.6001C78.7464 53.1627 68.9898 66.568 56.6935 66.568ZM56.6453 65.0249C56.6614 65.0249 56.6775 65.0249 56.6935 65.0249C66.9806 65.0249 75.7567 54.4646 77.5731 52.1501C75.7728 49.8194 67.0288 39.1948 56.7257 39.1626C56.7096 39.1626 56.6935 39.1626 56.6775 39.1626C46.3743 39.1626 37.6143 49.723 35.798 52.0375C37.5982 54.3682 46.3422 64.9928 56.6453 65.0249Z" fill="#111827"/>
<path d="M57.0792 103.553C58.8152 103.296 60.5993 103.296 62.3513 103.504V82.416H51.0034V104.228C52.7876 103.376 54.9254 103.296 57.0792 103.553Z" fill="#DBEEFF"/>
<path d="M55.4398 144.926H62.3514V124.207C61.8853 124.079 61.4513 124.015 61.0334 123.982C55.1665 127.213 55.4237 137.999 55.4398 144.926Z" fill="#DBEEFF"/>
<path d="M57.031 103.376C58.6705 103.376 60.5511 103.2 62.3513 103.344V100.981H51.0034V104.244C52.6751 103.441 54.636 103.312 56.6292 103.505C56.7417 103.425 56.8703 103.376 57.031 103.376Z" fill="#111827"/>
<path d="M55.4561 140.313H62.3516V124.207C61.8855 124.079 61.4515 124.015 61.0336 123.982C56.3722 126.554 55.5686 133.916 55.4561 140.313Z" fill="#111827"/>
<path d="M77.0748 64.5741L73.0404 69.7659C72.3653 70.6338 73.5869 71.8715 74.262 70.9875C75.6121 69.2515 76.9623 67.5156 78.3125 65.7796C78.9876 64.9277 77.766 63.6901 77.0748 64.5741Z" fill="#111827"/>
<path d="M63.0748 30.9812C58.5903 30.0008 54.1058 29.0042 49.6213 28.0237C48.5283 27.7826 48.0621 29.4543 49.1551 29.6954C53.6396 30.6758 58.1242 31.6724 62.6087 32.6529C63.7017 32.894 64.1678 31.2223 63.0748 30.9812Z" fill="#111827"/>
<path d="M47.2907 57.8883C47.0978 57.8883 46.8888 57.808 46.7442 57.6633C46.4388 57.3579 46.4388 56.8757 46.7442 56.5703L60.5835 42.731C60.8889 42.4256 61.3711 42.4256 61.6765 42.731C61.9819 43.0364 61.9819 43.5186 61.6765 43.824L47.8372 57.6633C47.6925 57.824 47.4836 57.8883 47.2907 57.8883Z" fill="#111827"/>
<path d="M56.6933 63.3206C55.7932 63.3206 54.8931 63.2081 53.9929 62.9991C51.0836 62.2919 48.6244 60.4756 47.0653 57.9199C43.8505 52.6317 45.5543 45.704 50.8425 42.5054C56.1307 39.3067 63.0584 40.9945 66.257 46.2827C67.8162 48.8544 68.2662 51.8602 67.559 54.7695C66.8518 57.6788 65.0355 60.138 62.4798 61.6972C60.7278 62.758 58.7186 63.3206 56.6933 63.3206ZM56.6611 42.4089C54.9574 42.4089 53.2214 42.859 51.6623 43.8073C47.0974 46.572 45.6347 52.5353 48.3994 57.1001C49.7335 59.3183 51.8552 60.8774 54.3787 61.4882C56.8862 62.099 59.4901 61.7132 61.7082 60.3631C63.9264 59.029 65.4694 56.9072 66.0963 54.3837C66.7232 51.8602 66.3213 49.2723 64.9712 47.0542C63.1388 44.0645 59.9401 42.4089 56.6611 42.4089Z" fill="#111827"/>
<path d="M68.7166 101.352C67.6075 99.5674 63.9749 99.5835 59.2171 101.416C58.8153 101.577 58.6224 102.011 58.7671 102.412C58.9278 102.814 59.3618 103.007 59.7636 102.862C64.2482 101.127 66.9324 101.416 67.3986 102.171C67.6557 102.589 67.2378 103.65 65.7269 105.048L65.7108 105.065C66.0966 105.386 66.3859 105.82 66.5627 106.318C66.6431 106.286 66.7074 106.238 66.7717 106.19C69.5203 103.666 69.1667 102.075 68.7166 101.352Z" fill="#111827"/>
<path d="M65.534 105.643C66.0323 106.238 66.1127 106.993 65.8073 107.942C66.3377 108.054 66.8199 108.311 67.1735 108.681C67.9129 106.72 67.3343 105.418 66.7074 104.663C64.0231 101.4 55.7131 101.994 51.2286 102.846C43.5294 104.325 39.7843 108.552 37.4054 118.47C34.8658 129.078 33.9656 146.936 33.2745 174.197C33.2584 174.615 33.5959 174.984 34.0299 174.984H34.046C34.4639 174.984 34.8015 174.647 34.8175 174.229C36.2642 117.232 38.7716 106.784 51.534 104.341C56.9669 103.329 63.7017 103.425 65.534 105.643Z" fill="#111827"/>
<path d="M66.4825 109.533C66.9164 110.256 66.6593 111.462 65.7591 113.085C65.8717 113.134 66.0002 113.198 66.1128 113.262C66.2896 113.407 66.4825 113.552 66.6593 113.68C66.7878 113.793 66.8843 113.921 66.9807 114.066C68.2988 111.767 68.572 110.031 67.8166 108.746C66.2735 106.142 61.0657 106.64 56.4847 107.074L55.3756 107.17C54.9577 107.202 54.6363 107.588 54.6845 108.006C54.7166 108.424 55.1024 108.746 55.5203 108.697L56.6294 108.585C60.3424 108.247 65.4377 107.765 66.4825 109.533Z" fill="#111827"/>
<path d="M66.129 118.55C65.9844 118.55 65.8397 118.518 65.7111 118.421C65.3575 118.196 65.245 117.714 65.47 117.361C66.1933 116.235 66.9488 114.692 66.4183 113.824C65.3736 112.105 59.7478 112.635 56.0188 112.973L55.2151 113.053C54.7972 113.085 54.4114 112.78 54.3793 112.362C54.3471 111.944 54.6525 111.558 55.0704 111.526L55.8741 111.446C60.7123 110.995 66.1772 110.481 67.7364 113.037C68.5079 114.291 68.1864 115.978 66.772 118.196C66.6434 118.421 66.3862 118.55 66.129 118.55Z" fill="#111827"/>
<path d="M62.6732 127.214C62.4643 127.214 62.2714 127.134 62.1267 126.973C61.8374 126.668 61.8374 126.185 62.1428 125.88C66.4827 121.669 66.4023 120.061 66.1612 119.563C65.7272 118.663 63.4769 117.795 55.2633 118.808C54.8454 118.856 54.4597 118.566 54.3954 118.132C54.3472 117.715 54.6365 117.329 55.0705 117.264C62.8179 116.3 66.547 116.782 67.5596 118.872C68.4276 120.672 67.0452 123.244 63.2197 126.957C63.059 127.134 62.8661 127.214 62.6732 127.214Z" fill="#111827"/>
<path d="M54.8614 173.731C54.4274 173.731 54.0898 173.393 54.0898 172.959C54.0898 171.368 54.122 134.013 56.7581 127.873C57.8511 125.317 59.1852 123.774 60.6961 123.292C62.0141 122.874 62.9624 123.404 63.0589 123.469C63.4286 123.694 63.5411 124.16 63.3161 124.53C63.091 124.883 62.6249 125.012 62.2713 124.787C62.2391 124.771 61.773 124.546 61.114 124.755C60.3907 125.012 59.2816 125.848 58.1564 128.468C55.649 134.318 55.6168 172.557 55.6168 172.943C55.6329 173.377 55.2954 173.731 54.8614 173.731Z" fill="#111827"/>
</svg>
